<svg xmlns="http://www.w3.org/2000/svg" width="231" height="231" viewBox="0 0 231 231" fill="none">
  <path d="M77.2086 224.478C81.0579 225.831 85.0001 226.99 89.023 227.938L115.026 156.309L141.103 228.138C145.25 227.196 149.316 226.03 153.283 224.658L115.218 127.207L77.2024 224.484L77.2086 224.478Z" fill="black"/>
  <path d="M115.391 5.8927L38.8398 201.836C41.7655 204.436 44.8214 206.899 48.0012 209.194L115.385 36.7031L182.813 209.319C185.999 207.03 189.055 204.573 191.987 201.979L115.385 5.8927H115.391Z" fill="black"/>
  <path d="M115.392 67.5072L57.6028 215.43C60.8446 217.313 64.1856 219.046 67.6134 220.611L115.392 98.3114L163.194 220.692C166.628 219.133 169.969 217.406 173.217 215.529L115.392 67.501V67.5072Z" fill="black"/>
  <path d="M216.31 171.786C225.657 155.075 231 135.813 231 115.297C231 63.903 197.547 20.3407 151.262 5.25665L216.31 171.786Z" fill="black"/>
  <path d="M79.5145 5.33149C33.348 20.4841 0 63.9841 0 115.297C0 135.725 5.29353 154.912 14.5665 171.568L79.5145 5.32526V5.33149Z" fill="black"/>
  <path d="M115.206 188.367L100.1 229.971C105.139 230.645 110.278 231 115.497 231C120.716 231 125.476 230.676 130.336 230.052L115.199 188.367H115.206Z" fill="black"/>
  <path d="M137.861 1.77093C133.69 0.954058 129.444 0.355433 125.129 0L200.689 193.424C203.584 190.256 206.299 186.933 208.834 183.459L137.867 1.77093H137.861Z" fill="black"/>
  <path d="M92.9282 1.80831L22.0358 183.266C24.5648 186.745 27.2735 190.088 30.1682 193.262L105.66 0.0186768C101.346 0.386581 97.0998 0.985207 92.9344 1.81455L92.9282 1.80831Z" fill="black"/>
</svg>
