<svg width="197" height="49" viewBox="0 0 197 49" fill="none" xmlns="http://www.w3.org/2000/svg">
<g filter="url(#filter0_d_218_3347)">
<path d="M2.08086 43.3194L19.0205 0H27.9175L44.9178 43.3194H36.8751L22.6782 4.39262H24.2012L10.0043 43.3194H2.08281H2.08086ZM11.7696 31.4217V25.0149H34.8029V31.4217H11.7696Z" fill="white"/>
<path d="M53.1444 43.3194L41.0178 13.7279H48.9393L58.2624 39.4142H56.0084L65.3922 13.7279H73.1924L61.1284 43.3194H53.1463H53.1444Z" fill="white"/>
<path d="M83.6102 44.1122C80.5644 44.1122 78.0249 43.3195 75.9937 41.7319C73.9625 40.1464 72.9479 37.9481 72.9479 35.143C72.9479 33.5985 73.2216 32.2968 73.7709 31.2378C74.3183 30.1807 75.0593 29.3057 75.9957 28.6147C77.2136 27.6379 78.717 26.9058 80.5038 26.4184C82.2906 25.931 84.2417 25.5845 86.353 25.3809C87.7743 25.2596 88.9629 25.1069 89.9169 24.9229C90.8709 24.7389 91.6021 24.4453 92.1103 24.0381C92.6186 23.6309 92.8728 23.0222 92.8728 22.2078C92.8728 20.9883 92.3137 20.082 91.1974 19.4928C90.0792 18.9036 88.4859 18.608 86.4136 18.608C84.5036 18.608 82.9201 18.8821 81.6611 19.4321C80.4021 19.9822 79.1822 20.9687 78.0054 22.3918L72.9479 18.6706C74.5725 16.5154 76.4922 15.0101 78.7072 14.1547C80.9202 13.3012 83.4304 12.8725 86.2318 12.8725C90.4975 12.8725 93.8268 13.7377 96.2255 15.4662C98.6223 17.1947 99.8207 19.7062 99.8207 23.0006V43.3175H93.5453V35.5697L95.252 35.8751C94.7652 37.6251 93.9715 39.1187 92.8747 40.3597C91.778 41.6008 90.4467 42.5365 88.8827 43.1668C87.3188 43.7971 85.5613 44.1122 83.6122 44.1122H83.6102ZM84.8301 38.4394C86.3315 38.4394 87.7137 38.1458 88.9727 37.5546C90.2316 36.9654 91.2365 36.1119 91.9891 34.9923C92.7398 33.8745 93.1171 32.5004 93.1171 30.8737V28.4934C92.5483 29.063 91.8777 29.4604 91.1055 29.6835C90.3333 29.9067 89.176 30.1005 87.6316 30.2629C86.2494 30.4254 85.1038 30.5977 84.1889 30.7817C83.2759 30.9657 82.4529 31.2808 81.7217 31.7272C81.235 32.0541 80.8381 32.469 80.5331 32.978C80.2281 33.4869 80.0757 34.1075 80.0757 34.8396C80.0757 35.9377 80.4921 36.8127 81.3249 37.4626C82.1577 38.1145 83.3248 38.4394 84.8282 38.4394H84.8301Z" fill="white"/>
<path d="M120.659 12.8745C124.273 12.8745 127.086 13.9942 129.098 16.2296C131.11 18.4671 132.115 21.5991 132.115 25.6256V43.3194H125.108V26.5417C125.108 24.0616 124.549 22.1706 123.433 20.8669C122.314 19.5652 120.639 18.9153 118.406 18.9153C116.823 18.9153 115.472 19.2422 114.354 19.8921C113.236 20.544 112.373 21.4483 111.763 22.6072C111.154 23.766 110.851 25.1402 110.851 26.7257V43.3214H103.781V13.7299H110.362V23.3099L108.778 22.7599C108.982 20.6046 109.611 18.794 110.667 17.3298C111.722 15.8655 113.124 14.7576 114.872 14.004C116.618 13.2523 118.547 12.8745 120.66 12.8745H120.659Z" fill="white"/>
<path d="M151.003 44.2356C147.916 44.2356 145.205 43.5739 142.869 42.2526C140.533 40.9313 138.724 39.0913 137.446 36.7305C136.167 34.3717 135.526 31.6469 135.526 28.554C135.526 25.4612 136.165 22.6874 137.446 20.3482C138.726 18.009 140.501 16.1787 142.777 14.8574C145.05 13.5361 147.713 12.8745 150.759 12.8745C153.521 12.8745 156.02 13.4148 158.254 14.4914C160.487 15.57 162.358 17.3689 163.861 19.8902L158.072 23.2453C157.259 21.742 156.264 20.6321 155.087 19.9195C153.908 19.2089 152.589 18.8507 151.126 18.8507C149.461 18.8507 147.999 19.2481 146.74 20.0409C145.481 20.8337 144.505 21.9534 143.815 23.396C143.123 24.8407 142.779 26.5378 142.779 28.4914C142.779 30.445 143.135 32.2028 143.846 33.6475C144.556 35.0921 145.531 36.2098 146.771 37.0026C148.01 37.7954 149.422 38.1928 151.005 38.1928C152.712 38.1928 154.163 37.7856 155.363 36.9732C156.561 36.1609 157.527 35.0627 158.258 33.6788L164.047 36.5465C162.706 39.0286 160.979 40.9293 158.868 42.2507C156.755 43.572 154.135 44.2336 151.007 44.2336L151.003 44.2356Z" fill="white"/>
<path d="M180.312 44.1749C177.061 44.1749 174.269 43.5132 171.933 42.1919C169.597 40.8706 167.81 39.0306 166.571 36.6698C165.331 34.311 164.712 31.5666 164.712 28.4327C164.712 25.2987 165.31 22.6267 166.508 20.2875C167.707 17.9483 169.423 16.1376 171.658 14.8574C173.892 13.5772 176.512 12.9352 179.518 12.9352C182.525 12.9352 185.174 13.5655 187.348 14.8261C189.52 16.0867 191.188 17.8563 192.345 20.1348C193.502 22.4134 194.081 25.056 194.081 28.0666C194.081 28.4738 194.059 28.9123 194.02 29.3782C193.979 29.846 193.938 30.2629 193.899 30.629H168.246V25.3203H190.427L187.137 26.9685C186.975 24.365 186.232 22.3312 184.912 20.867C183.593 19.4027 181.774 18.6706 179.458 18.6706C177.751 18.6706 176.308 19.0876 175.131 19.9215C173.953 20.7554 173.069 21.8946 172.481 23.3373C171.892 24.7819 171.597 26.4595 171.597 28.37C171.597 31.502 172.389 33.9333 173.974 35.6617C175.558 37.3902 177.671 38.2554 180.312 38.2554C181.978 38.2554 183.51 37.8991 184.912 37.1866C186.314 36.476 187.461 35.509 188.355 34.2895L193.596 37.7054C192.173 39.6981 190.345 41.2739 188.112 42.4347C185.878 43.5935 183.278 44.1729 180.312 44.1729V44.1749Z" fill="white"/>
</g>
<defs>
<filter id="filter0_d_218_3347" x="-1.90735e-06" y="0" width="196.162" height="48.3973" filterUnits="userSpaceOnUse" color-interpolation-filters="sRGB">
<feFlood flood-opacity="0" result="BackgroundImageFix"/>
<feColorMatrix in="SourceAlpha" type="matrix" values="0 0 0 0 0 0 0 0 0 0 0 0 0 0 0 0 0 0 127 0" result="hardAlpha"/>
<feOffset dy="2.08086"/>
<feGaussianBlur stdDeviation="1.04043"/>
<feComposite in2="hardAlpha" operator="out"/>
<feColorMatrix type="matrix" values="0 0 0 0 0 0 0 0 0 0 0 0 0 0 0 0 0 0 0.25 0"/>
<feBlend mode="normal" in2="BackgroundImageFix" result="effect1_dropShadow_218_3347"/>
<feBlend mode="normal" in="SourceGraphic" in2="effect1_dropShadow_218_3347" result="shape"/>
</filter>
</defs>
</svg>

